<svg width="425.975098" height="94.607056" viewBox="0 0 425.975 94.6071" fill="none" xmlns="http://www.w3.org/2000/svg" xmlns:xlink="http://www.w3.org/1999/xlink">
	<defs/>
	<path id="path" d="M15.52 19.68C18.8 17.49 20.94 13.9 20.94 9.83C20.94 5.77 18.8 2.18 15.52 0C12.25 2.18 10.11 5.77 10.11 9.83C10.11 13.9 12.25 17.5 15.52 19.68Z" fill="#FFFFFF" fill-opacity="1.000000" fill-rule="nonzero"/>
	<path id="path" d="M19.03 62.5C17.03 64.38 15.81 66.72 15.37 69.15C14.93 66.72 13.71 64.38 11.71 62.5C8.57 59.55 4.25 58.4 0.18 59.05C-0.51 62.88 0.71 66.95 3.84 69.9C6.55 72.45 10.15 73.65 13.7 73.5L13.7 92.88L17.04 92.88L17.04 73.5C20.59 73.65 24.18 72.45 26.89 69.9C30.03 66.95 31.25 62.88 30.55 59.05C26.49 58.4 22.17 59.55 19.03 62.5Z" fill="#FFFFFF" fill-opacity="1.000000" fill-rule="nonzero"/>
	<path id="path" d="M19.03 48.2C17.03 50.08 15.81 52.42 15.37 54.85C14.93 52.42 13.71 50.08 11.71 48.2C8.57 45.25 4.25 44.1 0.18 44.75C-0.51 48.58 0.71 52.65 3.84 55.6C6.98 58.55 11.31 59.7 15.37 59.04C19.43 59.7 23.76 58.55 26.89 55.6C30.03 52.65 31.25 48.58 30.55 44.75C26.49 44.1 22.17 45.25 19.03 48.2Z" fill="#FFFFFF" fill-opacity="1.000000" fill-rule="nonzero"/>
	<path id="path" d="M19.03 33.9C17.03 35.78 15.81 38.12 15.37 40.55C14.93 38.12 13.71 35.78 11.71 33.9C8.57 30.95 4.25 29.8 0.18 30.45C-0.51 34.27 0.71 38.35 3.84 41.3C6.98 44.25 11.31 45.4 15.37 44.74C19.43 45.4 23.76 44.25 26.89 41.3C30.03 38.35 31.25 34.27 30.55 30.45C26.49 29.8 22.17 30.95 19.03 33.9Z" fill="#FFFFFF" fill-opacity="1.000000" fill-rule="nonzero"/>
	<path id="path" d="M19.03 19.6C17.03 21.48 15.81 23.81 15.37 26.25C14.93 23.81 13.71 21.48 11.71 19.6C8.57 16.64 4.25 15.5 0.18 16.15C-0.51 19.97 0.71 24.04 3.84 27C6.98 29.95 11.31 31.1 15.37 30.44C19.43 31.09 23.76 29.95 26.89 27C30.03 24.04 31.25 19.97 30.55 16.15C26.49 15.5 22.17 16.64 19.03 19.6Z" fill="#FFFFFF" fill-opacity="1.000000" fill-rule="nonzero"/>
	<path id="path" d="M56.78 20.54C60.05 18.36 62.19 14.76 62.19 10.7C62.19 6.63 60.05 3.04 56.78 0.86C53.5 3.04 51.36 6.63 51.36 10.7C51.36 14.76 53.5 18.36 56.78 20.54Z" fill="#FFFFFF" fill-opacity="1.000000" fill-rule="nonzero"/>
	<path id="path" d="M60.28 63.36C58.28 65.24 57.07 67.58 56.62 70.02C56.18 67.58 54.96 65.24 52.96 63.36C49.83 60.41 45.5 59.26 41.44 59.92C40.74 63.74 41.96 67.81 45.1 70.76C47.81 73.31 51.41 74.51 54.96 74.37L54.96 93.74L58.29 93.74L58.29 74.37C61.84 74.51 65.44 73.31 68.15 70.76C71.29 67.81 72.5 63.74 71.81 59.92C67.75 59.26 63.42 60.41 60.28 63.36Z" fill="#FFFFFF" fill-opacity="1.000000" fill-rule="nonzero"/>
	<path id="path" d="M60.28 49.06C58.28 50.94 57.07 53.28 56.62 55.72C56.18 53.28 54.96 50.94 52.96 49.06C49.83 46.11 45.5 44.96 41.44 45.62C40.74 49.44 41.96 53.51 45.1 56.46C48.24 59.41 52.56 60.56 56.62 59.9C60.68 60.56 65.01 59.41 68.15 56.46C71.28 53.51 72.5 49.44 71.81 45.62C67.75 44.96 63.42 46.11 60.28 49.06Z" fill="#FFFFFF" fill-opacity="1.000000" fill-rule="nonzero"/>
	<path id="path" d="M60.28 34.76C58.28 36.64 57.07 38.98 56.62 41.41C56.18 38.98 54.96 36.64 52.96 34.76C49.83 31.81 45.5 30.66 41.44 31.31C40.74 35.14 41.96 39.21 45.1 42.16C48.24 45.11 52.56 46.26 56.62 45.6C60.68 46.26 65.01 45.11 68.15 42.16C71.28 39.21 72.5 35.14 71.81 31.31C67.75 30.66 63.42 31.81 60.28 34.76Z" fill="#FFFFFF" fill-opacity="1.000000" fill-rule="nonzero"/>
	<path id="path" d="M60.28 20.46C58.28 22.34 57.07 24.68 56.62 27.11C56.18 24.68 54.96 22.34 52.96 20.46C49.83 17.51 45.5 16.36 41.44 17.01C40.74 20.83 41.96 24.91 45.1 27.86C48.24 30.81 52.56 31.96 56.62 31.3C60.68 31.96 65.01 30.81 68.15 27.86C71.28 24.91 72.5 20.83 71.81 17.01C67.75 16.36 63.42 17.51 60.28 20.46Z" fill="#FFFFFF" fill-opacity="1.000000" fill-rule="nonzero"/>
	<path id="path" d="M99.83 20.54C103.11 18.36 105.25 14.76 105.25 10.7C105.25 6.63 103.11 3.04 99.83 0.86C96.55 3.04 94.41 6.63 94.41 10.7C94.41 14.76 96.55 18.36 99.83 20.54Z" fill="#FFFFFF" fill-opacity="1.000000" fill-rule="nonzero"/>
	<path id="path" d="M103.34 63.36C101.34 65.24 100.12 67.58 99.68 70.02C99.23 67.58 98.01 65.24 96.02 63.36C92.88 60.41 88.55 59.26 84.49 59.92C83.8 63.74 85.02 67.81 88.15 70.76C90.86 73.31 94.46 74.51 98.01 74.37L98.01 93.74L101.34 93.74L101.34 74.37C104.89 74.51 108.49 73.31 111.2 70.76C114.34 67.81 115.56 63.74 114.86 59.92C110.8 59.26 106.47 60.41 103.34 63.36Z" fill="#FFFFFF" fill-opacity="1.000000" fill-rule="nonzero"/>
	<path id="path" d="M103.34 49.06C101.34 50.94 100.12 53.28 99.68 55.72C99.23 53.28 98.01 50.94 96.02 49.06C92.88 46.11 88.55 44.96 84.49 45.62C83.8 49.44 85.02 53.51 88.15 56.46C91.29 59.41 95.61 60.56 99.68 59.9C103.74 60.56 108.06 59.41 111.2 56.46C114.34 53.51 115.56 49.44 114.86 45.62C110.8 44.96 106.47 46.11 103.34 49.06Z" fill="#FFFFFF" fill-opacity="1.000000" fill-rule="nonzero"/>
	<path id="path" d="M103.34 34.76C101.34 36.64 100.12 38.98 99.68 41.41C99.23 38.98 98.01 36.64 96.02 34.76C92.88 31.81 88.55 30.66 84.49 31.31C83.8 35.14 85.02 39.21 88.15 42.16C91.29 45.11 95.61 46.26 99.68 45.6C103.74 46.26 108.06 45.11 111.2 42.16C114.34 39.21 115.56 35.14 114.86 31.31C110.8 30.66 106.47 31.81 103.34 34.76Z" fill="#FFFFFF" fill-opacity="1.000000" fill-rule="nonzero"/>
	<path id="path" d="M103.34 20.46C101.34 22.34 100.12 24.68 99.68 27.11C99.23 24.68 98.01 22.34 96.02 20.46C92.88 17.51 88.55 16.36 84.49 17.01C83.8 20.83 85.02 24.91 88.15 27.86C91.29 30.81 95.61 31.96 99.68 31.3C103.74 31.96 108.06 30.81 111.2 27.86C114.34 24.91 115.56 20.83 114.86 17.01C110.8 16.36 106.47 17.51 103.34 20.46Z" fill="#FFFFFF" fill-opacity="1.000000" fill-rule="nonzero"/>
	<path id="path" d="M141.09 21.4C144.36 19.22 146.5 15.62 146.5 11.56C146.5 7.49 144.36 3.9 141.09 1.72C137.81 3.9 135.67 7.49 135.67 11.56C135.67 15.62 137.81 19.22 141.09 21.4Z" fill="#FFFFFF" fill-opacity="1.000000" fill-rule="nonzero"/>
	<path id="path" d="M144.59 64.22C142.59 66.1 141.37 68.44 140.93 70.88C140.49 68.44 139.27 66.1 137.27 64.22C134.13 61.27 129.81 60.12 125.75 60.78C125.05 64.6 126.27 68.67 129.41 71.62C132.12 74.17 135.72 75.37 139.26 75.23L139.26 94.6L142.6 94.6L142.6 75.23C146.15 75.37 149.75 74.17 152.46 71.62C155.59 68.67 156.81 64.6 156.12 60.78C152.05 60.12 147.73 61.27 144.59 64.22Z" fill="#FFFFFF" fill-opacity="1.000000" fill-rule="nonzero"/>
	<path id="path" d="M144.59 49.92C142.59 51.8 141.37 54.14 140.93 56.58C140.49 54.14 139.27 51.8 137.27 49.92C134.13 46.97 129.81 45.82 125.75 46.48C125.05 50.3 126.27 54.37 129.41 57.32C132.54 60.27 136.87 61.42 140.93 60.77C144.99 61.42 149.32 60.27 152.46 57.32C155.59 54.37 156.81 50.3 156.11 46.48C152.05 45.82 147.73 46.97 144.59 49.92Z" fill="#FFFFFF" fill-opacity="1.000000" fill-rule="nonzero"/>
	<path id="path" d="M144.59 35.62C142.59 37.5 141.37 39.84 140.93 42.28C140.49 39.84 139.27 37.5 137.27 35.62C134.13 32.67 129.81 31.52 125.75 32.18C125.05 36 126.27 40.07 129.41 43.02C132.54 45.97 136.87 47.12 140.93 46.47C144.99 47.12 149.32 45.97 152.46 43.02C155.59 40.07 156.81 36 156.11 32.18C152.05 31.52 147.73 32.67 144.59 35.62Z" fill="#FFFFFF" fill-opacity="1.000000" fill-rule="nonzero"/>
	<path id="path" d="M144.59 21.32C142.59 23.2 141.37 25.54 140.93 27.97C140.49 25.54 139.27 23.2 137.27 21.32C134.13 18.37 129.81 17.22 125.75 17.88C125.05 21.7 126.27 25.77 129.41 28.72C132.54 31.67 136.87 32.82 140.93 32.16C144.99 32.82 149.32 31.67 152.46 28.72C155.59 25.77 156.81 21.7 156.11 17.88C152.05 17.22 147.73 18.37 144.59 21.32Z" fill="#FFFFFF" fill-opacity="1.000000" fill-rule="nonzero"/>
	<path id="Green Bite" d="M197.79 38.07L184.98 38.07L184.98 42.93L190.84 42.93Q190.48 43.32 190.07 43.61Q189.45 44.05 188.69 44.28Q188.22 44.42 187.74 44.51Q186.92 44.67 186.07 44.67Q182.95 44.67 181.43 43.2Q180.99 42.77 180.67 42.26Q179.92 41.03 179.92 39.33Q179.92 37.93 180.48 36.81Q180.8 36.15 181.32 35.59Q181.39 35.52 181.47 35.44Q182.88 34.08 185.61 34.08Q187.09 34.08 188.44 34.5Q188.68 34.57 188.92 34.66Q189.75 34.98 190.46 35.45Q191.1 35.87 191.65 36.42L192.4 36Q196.33 33.93 197.68 33.24Q196.28 31.46 194.48 30.31Q193.61 29.75 192.64 29.34Q189.69 28.08 185.83 28.08Q179.04 28.08 175.84 31.2Q175.15 31.87 174.61 32.63Q172.63 35.47 172.63 39.69Q172.63 43.05 173.96 45.57Q174.84 47.23 176.16 48.39Q176.84 48.98 177.64 49.44Q177.88 49.58 178.12 49.7Q180.31 50.79 183.04 50.79Q186.37 50.79 188.68 49.42Q189.38 49 189.95 48.44Q191.26 47.17 191.88 45.18L192.51 50.49L197.79 50.49L197.79 38.07ZM223.2 40.11Q224.29 38.38 224.29 35.98Q224.29 33.98 223.42 32.47Q222.85 31.47 221.88 30.69Q219.49 28.74 213.43 28.74L207.27 28.74L207.27 28.71L200.2 28.71Q200.44 34.53 200.44 39.6Q200.44 44.67 200.2 50.49L207.27 50.49L207.27 43.53L211.69 43.53Q214.54 48.03 215.86 50.49L224.02 50.49L219.16 43.74Q219.01 43.48 218.65 42.99Q221.74 42.18 223.01 40.38Q223.11 40.25 223.2 40.11ZM250.29 44.67Q245.17 44.94 233.76 45L233.76 41.88Q235.21 41.85 238.03 41.85Q242.79 41.85 247.9 42.03L247.9 36.87Q242.79 37.05 238.03 37.05Q235.21 37.05 233.76 37.02L233.76 34.14L249.99 34.14L249.99 28.71L226.69 28.71Q226.93 34.53 226.93 39.6Q226.93 44.67 226.69 50.49L249.99 50.49Q249.99 48.51 250.04 47.21Q250.09 45.9 250.29 44.67ZM276.3 44.67Q271.18 44.94 259.77 45L259.77 41.88Q261.22 41.85 264.04 41.85Q268.8 41.85 273.91 42.03L273.91 36.87Q268.8 37.05 264.04 37.05Q261.22 37.05 259.77 37.02L259.77 34.14L276 34.14L276 28.71L252.7 28.71Q252.94 34.53 252.94 39.6Q252.94 44.67 252.7 50.49L276 50.49Q276 48.51 276.05 47.21Q276.1 45.9 276.3 44.67ZM336.13 41.87Q334.73 39.66 329.86 39.66Q332.95 38.8 334.22 37.37Q334.98 36.52 335.29 35.53Q335.5 34.85 335.5 34.12Q335.5 32.39 334.68 31.24Q334.64 31.19 334.61 31.14Q333.72 29.97 331.58 29.35Q329.44 28.74 325.72 28.74L319.32 28.74L319.32 28.71L312.28 28.71Q312.52 34.53 312.52 39.6Q312.52 44.67 312.28 50.49L325.78 50.49Q330.04 50.49 332.43 49.7Q334.84 48.9 335.77 47.48Q336.7 46.05 336.7 44.01Q336.7 42.76 336.13 41.87ZM351.25 34.47Q352.96 34.5 356.53 34.68L356.53 28.71L339.1 28.71L339.1 34.68Q342.55 34.5 344.35 34.47L344.35 44.74Q342.55 44.7 339.1 44.52L339.1 50.49L356.53 50.49L356.53 44.52Q352.98 44.7 351.25 44.74L351.25 34.47ZM375.55 34.83Q379.98 34.86 384.69 35.01L384.69 28.71L358.93 28.71L358.93 35.01Q363.58 34.86 368.05 34.83L368.05 50.49L375.55 50.49L375.55 34.83ZM410.7 44.67Q405.58 44.94 394.17 45L394.17 41.88Q395.62 41.85 398.44 41.85Q403.2 41.85 408.31 42.03L408.31 36.87Q403.2 37.05 398.44 37.05Q395.62 37.05 394.17 37.02L394.17 34.14L410.4 34.14L410.4 28.71L387.1 28.71Q387.34 34.53 387.34 39.6Q387.34 44.67 387.1 50.49L410.4 50.49Q410.4 48.51 410.45 47.21Q410.5 45.9 410.7 44.67ZM303.67 39.6Q303.67 33.81 303.87 28.74L296.53 28.74L297.03 45.57L289.75 28.74L278.71 28.74Q278.95 34.56 278.95 39.6Q278.95 44.67 278.71 50.49L286.42 50.49L285.88 34.12L293.14 50.49L303.87 50.49Q303.67 45.42 303.67 39.6ZM319.32 36.99L319.32 34.2L325.09 34.2Q326.89 34.2 327.65 34.49Q328.13 34.67 328.31 35Q328.41 35.21 328.41 35.46Q328.41 35.96 328.18 36.28Q328 36.52 327.68 36.66Q326.95 36.99 325.09 36.99L319.32 36.99ZM207.27 37.92L207.27 34.5L211.32 34.5Q213.91 34.5 215.23 34.66Q216.55 34.8 217.02 35.16Q217.21 35.3 217.32 35.49Q217.5 35.78 217.5 36.18Q217.5 36.6 217.32 36.9Q217.19 37.09 216.99 37.24Q216.49 37.59 215.18 37.76Q213.88 37.92 211.32 37.92L207.27 37.92ZM327.47 44.87Q326.65 45 325.09 45L319.32 45L319.32 41.97L325.09 41.97Q327.31 41.97 328.16 42.32Q328.7 42.54 328.9 42.93Q329.01 43.16 329.01 43.44Q329.01 43.91 328.79 44.23Q328.73 44.31 328.65 44.39Q328.3 44.74 327.47 44.87Z" fill="#FFFFFF" fill-opacity="1.000000" fill-rule="evenodd"/>
	<ellipse id="Эллипс 1" cx="234.989258" cy="70.252975" rx="2.290000" ry="2.155000" fill="#FFFFFF" fill-opacity="1.000000"/>
	<ellipse id="Эллипс 1" cx="256.057373" cy="70.252975" rx="3.206000" ry="3.017000" fill="#FFFFFF" fill-opacity="1.000000"/>
	<ellipse id="Эллипс 1" cx="278.957275" cy="70.252960" rx="4.122000" ry="3.879000" fill="#FFFFFF" fill-opacity="1.000000"/>
	<ellipse id="Эллипс 1" cx="215.753418" cy="70.252975" rx="1.374000" ry="1.293000" fill="#FFFFFF" fill-opacity="1.000000"/>
	<ellipse id="Эллипс 1" rx="2.290000" ry="2.155000" transform="matrix(-1 0 0 1 350.405 70.253)" fill="#FFFFFF" fill-opacity="1.000000"/>
	<ellipse id="Эллипс 1" rx="3.206000" ry="3.017000" transform="matrix(-1 0 0 1 329.337 70.253)" fill="#FFFFFF" fill-opacity="1.000000"/>
	<ellipse id="Эллипс 1" rx="4.122000" ry="3.879000" transform="matrix(-1 0 0 1 306.437 70.253)" fill="#FFFFFF" fill-opacity="1.000000"/>
	<ellipse id="Эллипс 1" rx="1.374000" ry="1.293000" transform="matrix(-1 0 0 1 369.641 70.253)" fill="#FFFFFF" fill-opacity="1.000000"/>
</svg>
