<svg width="156.310059" height="94.607056" viewBox="0 0 156.31 94.6071" fill="none" xmlns="http://www.w3.org/2000/svg" xmlns:xlink="http://www.w3.org/1999/xlink">
	<desc>
			Created with Pixso.
	</desc>
	<defs/>
	<path id="path" d="M15.52 19.68C18.8 17.49 20.94 13.9 20.94 9.83C20.94 5.77 18.8 2.18 15.52 0C12.25 2.18 10.11 5.77 10.11 9.83C10.11 13.9 12.25 17.5 15.52 19.68Z" fill="#FFFFFF" fill-opacity="1.000000" fill-rule="nonzero"/>
	<path id="path" d="M19.03 62.5C17.03 64.38 15.81 66.72 15.37 69.15C14.93 66.72 13.71 64.38 11.71 62.5C8.57 59.55 4.25 58.4 0.18 59.05C-0.51 62.88 0.71 66.95 3.84 69.9C6.55 72.45 10.15 73.65 13.7 73.5L13.7 92.88L17.04 92.88L17.04 73.5C20.59 73.65 24.18 72.45 26.89 69.9C30.03 66.95 31.25 62.88 30.55 59.05C26.49 58.4 22.17 59.55 19.03 62.5Z" fill="#FFFFFF" fill-opacity="1.000000" fill-rule="nonzero"/>
	<path id="path" d="M19.03 48.2C17.03 50.08 15.81 52.42 15.37 54.85C14.93 52.42 13.71 50.08 11.71 48.2C8.57 45.25 4.25 44.1 0.18 44.75C-0.51 48.58 0.71 52.65 3.84 55.6C6.98 58.55 11.31 59.7 15.37 59.04C19.43 59.7 23.76 58.55 26.89 55.6C30.03 52.65 31.25 48.58 30.55 44.75C26.49 44.1 22.17 45.25 19.03 48.2Z" fill="#FFFFFF" fill-opacity="1.000000" fill-rule="nonzero"/>
	<path id="path" d="M19.03 33.9C17.03 35.78 15.81 38.12 15.37 40.55C14.93 38.12 13.71 35.78 11.71 33.9C8.57 30.95 4.25 29.8 0.18 30.45C-0.51 34.27 0.71 38.35 3.84 41.3C6.98 44.25 11.31 45.4 15.37 44.74C19.43 45.4 23.76 44.25 26.89 41.3C30.03 38.35 31.25 34.27 30.55 30.45C26.49 29.8 22.17 30.95 19.03 33.9Z" fill="#FFFFFF" fill-opacity="1.000000" fill-rule="nonzero"/>
	<path id="path" d="M19.03 19.6C17.03 21.48 15.81 23.81 15.37 26.25C14.93 23.81 13.71 21.48 11.71 19.6C8.57 16.64 4.25 15.5 0.18 16.15C-0.51 19.97 0.71 24.04 3.84 27C6.98 29.95 11.31 31.1 15.37 30.44C19.43 31.09 23.76 29.95 26.89 27C30.03 24.04 31.25 19.97 30.55 16.15C26.49 15.5 22.17 16.64 19.03 19.6Z" fill="#FFFFFF" fill-opacity="1.000000" fill-rule="nonzero"/>
	<path id="path" d="M56.78 20.54C60.05 18.36 62.19 14.76 62.19 10.7C62.19 6.63 60.05 3.04 56.78 0.86C53.5 3.04 51.36 6.63 51.36 10.7C51.36 14.76 53.5 18.36 56.78 20.54Z" fill="#FFFFFF" fill-opacity="1.000000" fill-rule="nonzero"/>
	<path id="path" d="M60.28 63.36C58.28 65.24 57.07 67.58 56.62 70.02C56.18 67.58 54.96 65.24 52.96 63.36C49.83 60.41 45.5 59.26 41.44 59.92C40.74 63.74 41.96 67.81 45.1 70.76C47.81 73.31 51.41 74.51 54.96 74.37L54.96 93.74L58.29 93.74L58.29 74.37C61.84 74.51 65.44 73.31 68.15 70.76C71.29 67.81 72.5 63.74 71.81 59.92C67.75 59.26 63.42 60.41 60.28 63.36Z" fill="#FFFFFF" fill-opacity="1.000000" fill-rule="nonzero"/>
	<path id="path" d="M60.28 49.06C58.28 50.94 57.07 53.28 56.62 55.72C56.18 53.28 54.96 50.94 52.96 49.06C49.83 46.11 45.5 44.96 41.44 45.62C40.74 49.44 41.96 53.51 45.1 56.46C48.24 59.41 52.56 60.56 56.62 59.9C60.68 60.56 65.01 59.41 68.15 56.46C71.28 53.51 72.5 49.44 71.81 45.62C67.75 44.96 63.42 46.11 60.28 49.06Z" fill="#FFFFFF" fill-opacity="1.000000" fill-rule="nonzero"/>
	<path id="path" d="M60.28 34.76C58.28 36.64 57.07 38.98 56.62 41.41C56.18 38.98 54.96 36.64 52.96 34.76C49.83 31.81 45.5 30.66 41.44 31.31C40.74 35.14 41.96 39.21 45.1 42.16C48.24 45.11 52.56 46.26 56.62 45.6C60.68 46.26 65.01 45.11 68.15 42.16C71.28 39.21 72.5 35.14 71.81 31.31C67.75 30.66 63.42 31.81 60.28 34.76Z" fill="#FFFFFF" fill-opacity="1.000000" fill-rule="nonzero"/>
	<path id="path" d="M60.28 20.46C58.28 22.34 57.07 24.68 56.62 27.11C56.18 24.68 54.96 22.34 52.96 20.46C49.83 17.51 45.5 16.36 41.44 17.01C40.74 20.83 41.96 24.91 45.1 27.86C48.24 30.81 52.56 31.96 56.62 31.3C60.68 31.96 65.01 30.81 68.15 27.86C71.28 24.91 72.5 20.83 71.81 17.01C67.75 16.36 63.42 17.51 60.28 20.46Z" fill="#FFFFFF" fill-opacity="1.000000" fill-rule="nonzero"/>
	<path id="path" d="M99.83 20.54C103.11 18.36 105.25 14.76 105.25 10.7C105.25 6.63 103.11 3.04 99.83 0.86C96.55 3.04 94.41 6.63 94.41 10.7C94.41 14.76 96.55 18.36 99.83 20.54Z" fill="#FFFFFF" fill-opacity="1.000000" fill-rule="nonzero"/>
	<path id="path" d="M103.34 63.36C101.34 65.24 100.12 67.58 99.68 70.02C99.23 67.58 98.01 65.24 96.02 63.36C92.88 60.41 88.55 59.26 84.49 59.92C83.8 63.74 85.02 67.81 88.15 70.76C90.86 73.31 94.46 74.51 98.01 74.37L98.01 93.74L101.34 93.74L101.34 74.37C104.89 74.51 108.49 73.31 111.2 70.76C114.34 67.81 115.56 63.74 114.86 59.92C110.8 59.26 106.47 60.41 103.34 63.36Z" fill="#FFFFFF" fill-opacity="1.000000" fill-rule="nonzero"/>
	<path id="path" d="M103.34 49.06C101.34 50.94 100.12 53.28 99.68 55.72C99.23 53.28 98.01 50.94 96.02 49.06C92.88 46.11 88.55 44.96 84.49 45.62C83.8 49.44 85.02 53.51 88.15 56.46C91.29 59.41 95.61 60.56 99.68 59.9C103.74 60.56 108.06 59.41 111.2 56.46C114.34 53.51 115.56 49.44 114.86 45.62C110.8 44.96 106.47 46.11 103.34 49.06Z" fill="#FFFFFF" fill-opacity="1.000000" fill-rule="nonzero"/>
	<path id="path" d="M103.34 34.76C101.34 36.64 100.12 38.98 99.68 41.41C99.23 38.98 98.01 36.64 96.02 34.76C92.88 31.81 88.55 30.66 84.49 31.31C83.8 35.14 85.02 39.21 88.15 42.16C91.29 45.11 95.61 46.26 99.68 45.6C103.74 46.26 108.06 45.11 111.2 42.16C114.34 39.21 115.56 35.14 114.86 31.31C110.8 30.66 106.47 31.81 103.34 34.76Z" fill="#FFFFFF" fill-opacity="1.000000" fill-rule="nonzero"/>
	<path id="path" d="M103.34 20.46C101.34 22.34 100.12 24.68 99.68 27.11C99.23 24.68 98.01 22.34 96.02 20.46C92.88 17.51 88.55 16.36 84.49 17.01C83.8 20.83 85.02 24.91 88.15 27.86C91.29 30.81 95.61 31.96 99.68 31.3C103.74 31.96 108.06 30.81 111.2 27.86C114.34 24.91 115.56 20.83 114.86 17.01C110.8 16.36 106.47 17.51 103.34 20.46Z" fill="#FFFFFF" fill-opacity="1.000000" fill-rule="nonzero"/>
	<path id="path" d="M141.09 21.4C144.36 19.22 146.5 15.62 146.5 11.56C146.5 7.49 144.36 3.9 141.09 1.72C137.81 3.9 135.67 7.49 135.67 11.56C135.67 15.62 137.81 19.22 141.09 21.4Z" fill="#FFFFFF" fill-opacity="1.000000" fill-rule="nonzero"/>
	<path id="path" d="M144.59 64.22C142.59 66.1 141.37 68.44 140.93 70.88C140.49 68.44 139.27 66.1 137.27 64.22C134.13 61.27 129.81 60.12 125.75 60.78C125.05 64.6 126.27 68.67 129.41 71.62C132.12 74.17 135.72 75.37 139.26 75.23L139.26 94.6L142.6 94.6L142.6 75.23C146.15 75.37 149.75 74.17 152.46 71.62C155.59 68.67 156.81 64.6 156.12 60.78C152.05 60.12 147.73 61.27 144.59 64.22Z" fill="#FFFFFF" fill-opacity="1.000000" fill-rule="nonzero"/>
	<path id="path" d="M144.59 49.92C142.59 51.8 141.37 54.14 140.93 56.58C140.49 54.14 139.27 51.8 137.27 49.92C134.13 46.97 129.81 45.82 125.75 46.48C125.05 50.3 126.27 54.37 129.41 57.32C132.54 60.27 136.87 61.42 140.93 60.77C144.99 61.42 149.32 60.27 152.46 57.32C155.59 54.37 156.81 50.3 156.11 46.48C152.05 45.82 147.73 46.97 144.59 49.92Z" fill="#FFFFFF" fill-opacity="1.000000" fill-rule="nonzero"/>
	<path id="path" d="M144.59 35.62C142.59 37.5 141.37 39.84 140.93 42.28C140.49 39.84 139.27 37.5 137.27 35.62C134.13 32.67 129.81 31.52 125.75 32.18C125.05 36 126.27 40.07 129.41 43.02C132.54 45.97 136.87 47.12 140.93 46.47C144.99 47.12 149.32 45.97 152.46 43.02C155.59 40.07 156.81 36 156.11 32.18C152.05 31.52 147.73 32.67 144.59 35.62Z" fill="#FFFFFF" fill-opacity="1.000000" fill-rule="nonzero"/>
	<path id="path" d="M144.59 21.32C142.59 23.2 141.37 25.54 140.93 27.97C140.49 25.54 139.27 23.2 137.27 21.32C134.13 18.37 129.81 17.22 125.75 17.88C125.05 21.7 126.27 25.77 129.41 28.72C132.54 31.67 136.87 32.82 140.93 32.16C144.99 32.82 149.32 31.67 152.46 28.72C155.59 25.77 156.81 21.7 156.11 17.88C152.05 17.22 147.73 18.37 144.59 21.32Z" fill="#FFFFFF" fill-opacity="1.000000" fill-rule="nonzero"/>
</svg>
